<svg width="26" height="21" viewBox="0 0 26 21" fill="none" xmlns="http://www.w3.org/2000/svg">
<path d="M0.358627 0.912109H25.541V20.9121H0.358627V0.912109Z" fill="white"/>
<path d="M10.3054 16.437C11.1553 16.612 12.0367 16.6953 12.9496 16.6953C16.3807 16.6953 19.455 15.4203 21.5535 13.4037C23.0225 11.9953 23.0225 9.82035 21.5535 8.42035C21.3857 8.25368 21.1968 8.09535 21.0079 7.93701" fill="white"/>
<path d="M10.3054 16.437C11.1553 16.612 12.0367 16.6953 12.9496 16.6953C16.3807 16.6953 19.455 15.4203 21.5535 13.4037C23.0225 11.9953 23.0225 9.82035 21.5535 8.42035C21.3857 8.25368 21.1968 8.09535 21.0079 7.93701" stroke="black" stroke-width="1.5" stroke-linecap="round" stroke-linejoin="round"/>
<path d="M4.34546 13.4039C5.18488 14.2039 6.18168 14.8872 7.28341 15.4206L18.626 6.40391C16.9576 5.58724 15.027 5.12891 12.9494 5.12891C9.51835 5.12891 6.444 6.40391 4.34546 8.42058C2.87649 9.82058 2.87649 12.0039 4.34546 13.4039Z" fill="white" stroke="black" stroke-width="1.5" stroke-linecap="round" stroke-linejoin="round"/>
<path d="M9.71719 10.9119C9.71719 11.6202 10.0844 12.2619 10.6615 12.7285L15.2363 9.09522C14.6592 8.62855 13.8408 8.34521 12.9489 8.34521C11.1547 8.34521 9.71719 9.48688 9.71719 10.9119Z" fill="white" stroke="black" stroke-width="1.5" stroke-linecap="round" stroke-linejoin="round"/>
<path d="M22.6553 3.20361L18.6261 6.40361L15.237 9.09528L10.6622 12.7286L7.27303 15.4203L3.24385 18.6203" fill="white"/>
<path d="M22.6553 3.20361L18.6261 6.40361L15.237 9.09528L10.6622 12.7286L7.27303 15.4203L3.24385 18.6203" stroke="black" stroke-width="1.5" stroke-linecap="round" stroke-linejoin="round"/>
</svg>
