<svg width="127" height="37" viewBox="0 0 127 37" fill="none" xmlns="http://www.w3.org/2000/svg">
<path d="M44.8288 7.17236C44.7542 6.91313 44.6495 6.68408 44.5145 6.48522C44.3796 6.2828 44.2144 6.11235 44.0191 5.97385C43.8274 5.83181 43.6072 5.7235 43.3586 5.64893C43.1136 5.57435 42.8419 5.53707 42.5436 5.53707C41.9861 5.53707 41.496 5.67556 41.0735 5.95255C40.6544 6.22954 40.3277 6.63259 40.0934 7.16171C39.859 7.68728 39.7418 8.33003 39.7418 9.08998C39.7418 9.84992 39.8572 10.4962 40.088 11.0289C40.3188 11.5616 40.6456 11.9682 41.0681 12.2487C41.4907 12.5257 41.9897 12.6642 42.5649 12.6642C43.087 12.6642 43.5326 12.5719 43.9019 12.3872C44.2748 12.199 44.5589 11.9344 44.7542 11.5935C44.9531 11.2526 45.0525 10.8496 45.0525 10.3844L45.5213 10.4536H42.7088V8.71711H47.2737V10.0914C47.2737 11.0502 47.0713 11.8741 46.6665 12.563C46.2617 13.2484 45.7041 13.7775 44.9939 14.1503C44.2837 14.5197 43.4705 14.7043 42.5543 14.7043C41.5316 14.7043 40.6331 14.4788 39.859 14.0278C39.0848 13.5733 38.4811 12.9288 38.0479 12.0942C37.6182 11.2562 37.4034 10.2619 37.4034 9.11128C37.4034 8.22705 37.5312 7.4387 37.7869 6.74623C38.0461 6.0502 38.4083 5.46072 38.8735 4.97776C39.3387 4.49481 39.8803 4.12726 40.4982 3.87513C41.1161 3.623 41.7855 3.49694 42.5063 3.49694C43.1242 3.49694 43.6995 3.58749 44.2322 3.7686C44.7649 3.94616 45.2372 4.19829 45.6491 4.52499C46.0646 4.8517 46.4037 5.24054 46.6665 5.69154C46.9293 6.13898 47.098 6.63259 47.1725 7.17236H44.8288ZM49.4763 14.5552V6.37336H51.7455V14.5552H49.4763ZM50.6163 5.31867C50.2789 5.31867 49.9895 5.20681 49.748 4.98309C49.5101 4.75581 49.3911 4.48415 49.3911 4.1681C49.3911 3.8556 49.5101 3.58749 49.748 3.36377C49.9895 3.1365 50.2789 3.02286 50.6163 3.02286C50.9536 3.02286 51.2413 3.1365 51.4792 3.36377C51.7207 3.58749 51.8414 3.8556 51.8414 4.1681C51.8414 4.48415 51.7207 4.75581 51.4792 4.98309C51.2413 5.20681 50.9536 5.31867 50.6163 5.31867ZM55.8324 9.82506V14.5552H53.5633V6.37336H55.7259V7.81689H55.8218C56.0029 7.34104 56.3065 6.96462 56.7326 6.68763C57.1588 6.40709 57.6755 6.26682 58.2827 6.26682C58.8509 6.26682 59.3463 6.39111 59.7689 6.63969C60.1915 6.88827 60.5199 7.24339 60.7543 7.70503C60.9887 8.16313 61.1059 8.71001 61.1059 9.34566V14.5552H58.8367V9.75049C58.8402 9.24978 58.7124 8.85915 58.4532 8.57861C58.1939 8.29452 57.837 8.15248 57.3825 8.15248C57.0771 8.15248 56.8072 8.21817 56.5728 8.34956C56.342 8.48096 56.1609 8.67272 56.0295 8.92485C55.9017 9.17343 55.836 9.4735 55.8324 9.82506ZM62.8943 14.5552V6.37336H65.1635V14.5552H62.8943ZM64.0342 5.31867C63.6969 5.31867 63.4074 5.20681 63.166 4.98309C62.928 4.75581 62.8091 4.48415 62.8091 4.1681C62.8091 3.8556 62.928 3.58749 63.166 3.36377C63.4074 3.1365 63.6969 3.02286 64.0342 3.02286C64.3716 3.02286 64.6592 3.1365 64.8972 3.36377C65.1386 3.58749 65.2594 3.8556 65.2594 4.1681C65.2594 4.48415 65.1386 4.75581 64.8972 4.98309C64.6592 5.20681 64.3716 5.31867 64.0342 5.31867ZM70.678 14.715C69.8399 14.715 69.119 14.5374 68.5153 14.1823C67.9152 13.8236 67.4535 13.3265 67.1304 12.6908C66.8108 12.0552 66.651 11.3236 66.651 10.4962C66.651 9.65816 66.8125 8.92307 67.1357 8.29097C67.4624 7.65532 67.9258 7.15993 68.526 6.80482C69.1261 6.44616 69.8399 6.26682 70.6673 6.26682C71.3811 6.26682 72.0061 6.39644 72.5423 6.65567C73.0785 6.91491 73.5029 7.2789 73.8154 7.74765C74.1279 8.2164 74.3001 8.76682 74.3321 9.39893H72.1907C72.1304 8.99054 71.9706 8.66206 71.7113 8.41349C71.4557 8.16135 71.1201 8.03529 70.7046 8.03529C70.353 8.03529 70.0459 8.13117 69.7831 8.32293C69.5238 8.51114 69.3214 8.78635 69.1758 9.14857C69.0302 9.51079 68.9574 9.94935 68.9574 10.4643C68.9574 10.9863 69.0285 11.4302 69.1705 11.7959C69.3161 12.1617 69.5203 12.4405 69.7831 12.6322C70.0459 12.824 70.353 12.9199 70.7046 12.9199C70.9638 12.9199 71.1964 12.8666 71.4024 12.7601C71.6119 12.6535 71.7841 12.4991 71.9191 12.2967C72.0576 12.0907 72.1481 11.8439 72.1907 11.5562H74.3321C74.2966 12.1812 74.1261 12.7317 73.8207 13.2075C73.5189 13.6798 73.1016 14.0491 72.5689 14.3155C72.0363 14.5818 71.4059 14.715 70.678 14.715ZM79.4817 14.715C78.6543 14.715 77.9387 14.5392 77.335 14.1876C76.7349 13.8325 76.2714 13.3389 75.9447 12.7068C75.618 12.0712 75.4547 11.3343 75.4547 10.4962C75.4547 9.65106 75.618 8.91242 75.9447 8.28032C76.2714 7.64466 76.7349 7.15106 77.335 6.79949C77.9387 6.44438 78.6543 6.26682 79.4817 6.26682C80.3091 6.26682 81.0229 6.44438 81.623 6.79949C82.2267 7.15106 82.6919 7.64466 83.0186 8.28032C83.3453 8.91242 83.5087 9.65106 83.5087 10.4962C83.5087 11.3343 83.3453 12.0712 83.0186 12.7068C82.6919 13.3389 82.2267 13.8325 81.623 14.1876C81.0229 14.5392 80.3091 14.715 79.4817 14.715ZM79.4923 12.9572C79.8687 12.9572 80.183 12.8506 80.4351 12.6376C80.6873 12.4209 80.8773 12.1262 81.0051 11.7533C81.1365 11.3805 81.2022 10.9561 81.2022 10.4802C81.2022 10.0044 81.1365 9.58003 81.0051 9.20716C80.8773 8.8343 80.6873 8.53955 80.4351 8.32293C80.183 8.10631 79.8687 7.998 79.4923 7.998C79.1123 7.998 78.7927 8.10631 78.5335 8.32293C78.2778 8.53955 78.0843 8.8343 77.9529 9.20716C77.8251 9.58003 77.7611 10.0044 77.7611 10.4802C77.7611 10.9561 77.8251 11.3805 77.9529 11.7533C78.0843 12.1262 78.2778 12.4209 78.5335 12.6376C78.7927 12.8506 79.1123 12.9572 79.4923 12.9572ZM88.7128 14.715C87.8712 14.715 87.1468 14.5445 86.5396 14.2036C85.9359 13.8592 85.4707 13.3726 85.144 12.7441C84.8172 12.112 84.6539 11.3645 84.6539 10.5016C84.6539 9.65993 84.8172 8.9213 85.144 8.28564C85.4707 7.64999 85.9305 7.15461 86.5236 6.79949C87.1202 6.44438 87.8197 6.26682 88.6223 6.26682C89.1621 6.26682 89.6646 6.35383 90.1297 6.52783C90.5985 6.69829 91.0069 6.95574 91.3549 7.3002C91.7065 7.64466 91.9799 8.0779 92.1752 8.59992C92.3705 9.11839 92.4682 9.72563 92.4682 10.4217V11.0449H85.5594V9.63863H90.3322C90.3322 9.31192 90.2611 9.02251 90.1191 8.77037C89.9771 8.51824 89.78 8.32116 89.5278 8.17911C89.2793 8.03351 88.9898 7.96072 88.6596 7.96072C88.3151 7.96072 88.0097 8.04062 87.7434 8.20042C87.4806 8.35667 87.2746 8.56796 87.1255 8.83429C86.9763 9.09708 86.9 9.39005 86.8964 9.7132V11.0502C86.8964 11.455 86.971 11.8048 87.1202 12.0996C87.2729 12.3943 87.4877 12.6216 87.7647 12.7814C88.0417 12.9412 88.3702 13.0211 88.7501 13.0211C89.0023 13.0211 89.2331 12.9856 89.4426 12.9146C89.6521 12.8435 89.8315 12.737 89.9806 12.5949C90.1297 12.4529 90.2434 12.2789 90.3215 12.0729L92.4202 12.2114C92.3137 12.7157 92.0953 13.156 91.765 13.5324C91.4383 13.9053 91.0158 14.1965 90.4973 14.406C89.9824 14.612 89.3876 14.715 88.7128 14.715ZM41.4623 32.5552H37.5951V21.6461H41.4943C42.5916 21.6461 43.5362 21.8645 44.3281 22.3013C45.12 22.7345 45.729 23.3577 46.1551 24.1709C46.5848 24.9842 46.7997 25.9572 46.7997 27.09C46.7997 28.2263 46.5848 29.2029 46.1551 30.0197C45.729 30.8364 45.1164 31.4632 44.3174 31.9C43.522 32.3368 42.5703 32.5552 41.4623 32.5552ZM39.9016 30.579H41.3664C42.0483 30.579 42.6218 30.4582 43.087 30.2168C43.5557 29.9717 43.9073 29.5935 44.1416 29.0822C44.3796 28.5672 44.4985 27.9032 44.4985 27.09C44.4985 26.2839 44.3796 25.6251 44.1416 25.1138C43.9073 24.6024 43.5575 24.226 43.0923 23.9845C42.6271 23.743 42.0536 23.6223 41.3718 23.6223H39.9016V30.579ZM50.7987 32.7097C50.2767 32.7097 49.8115 32.6191 49.4031 32.438C48.9947 32.2533 48.6716 31.9817 48.4336 31.623C48.1993 31.2608 48.0821 30.8098 48.0821 30.27C48.0821 29.8155 48.1655 29.4337 48.3324 29.1248C48.4993 28.8158 48.7266 28.5672 49.0142 28.379C49.3019 28.1908 49.6286 28.0488 49.9944 27.9529C50.3637 27.857 50.7508 27.7896 51.1556 27.7505C51.6314 27.7008 52.015 27.6546 52.3062 27.612C52.5973 27.5658 52.8086 27.4984 52.94 27.4096C53.0714 27.3208 53.1371 27.1894 53.1371 27.0154V26.9834C53.1371 26.6461 53.0306 26.3851 52.8175 26.2004C52.608 26.0158 52.3097 25.9234 51.9226 25.9234C51.5142 25.9234 51.1893 26.014 50.9478 26.1951C50.7064 26.3726 50.5466 26.5964 50.4684 26.8663L48.3697 26.6958C48.4763 26.1986 48.6858 25.769 48.9983 25.4067C49.3108 25.041 49.7138 24.7604 50.2074 24.5651C50.7046 24.3663 51.2799 24.2668 51.9333 24.2668C52.3878 24.2668 52.8228 24.3201 53.2383 24.4266C53.6574 24.5332 54.0285 24.6983 54.3516 24.922C54.6783 25.1457 54.9358 25.4334 55.124 25.7849C55.3122 26.1329 55.4063 26.5502 55.4063 27.0367V32.5552H53.2543V31.4206H53.1904C53.059 31.6763 52.8832 31.9018 52.663 32.0971C52.4429 32.2888 52.1783 32.4398 51.8694 32.5498C51.5604 32.6564 51.2035 32.7097 50.7987 32.7097ZM51.4486 31.1436C51.7824 31.1436 52.0771 31.0779 52.3328 30.9465C52.5885 30.8116 52.7891 30.6305 52.9347 30.4032C53.0803 30.1759 53.1531 29.9185 53.1531 29.6308V28.7626C53.0821 28.8087 52.9844 28.8513 52.8601 28.8904C52.7394 28.9259 52.6027 28.9597 52.45 28.9916C52.2973 29.02 52.1446 29.0467 51.9919 29.0715C51.8392 29.0928 51.7007 29.1123 51.5764 29.1301C51.3101 29.1692 51.0775 29.2313 50.8786 29.3165C50.6797 29.4018 50.5253 29.5172 50.4152 29.6628C50.3051 29.8048 50.25 29.9824 50.25 30.1954C50.25 30.5044 50.3619 30.7405 50.5856 30.9039C50.8129 31.0637 51.1005 31.1436 51.4486 31.1436ZM63.9743 26.7065L61.8969 26.8343C61.8614 26.6567 61.785 26.4969 61.6678 26.3549C61.5506 26.2093 61.3962 26.0939 61.2044 26.0087C61.0162 25.9199 60.7907 25.8755 60.5279 25.8755C60.1764 25.8755 59.8798 25.9501 59.6384 26.0992C59.3969 26.2448 59.2761 26.4401 59.2761 26.6851C59.2761 26.8805 59.3543 27.0456 59.5105 27.1805C59.6668 27.3155 59.9349 27.4238 60.3149 27.5055L61.7957 27.8038C62.5911 27.9671 63.1842 28.2299 63.5748 28.5921C63.9654 28.9543 64.1607 29.4302 64.1607 30.0197C64.1607 30.5559 64.0027 31.0264 63.6867 31.4312C63.3742 31.8361 62.9445 32.1521 62.3976 32.3794C61.8543 32.6031 61.2275 32.715 60.5173 32.715C59.4342 32.715 58.5712 32.4895 57.9285 32.0385C57.2893 31.5839 56.9146 30.966 56.8046 30.1848L59.0364 30.0676C59.1039 30.3979 59.2673 30.65 59.5265 30.824C59.7857 30.9945 60.1178 31.0797 60.5226 31.0797C60.9203 31.0797 61.2399 31.0033 61.4814 30.8506C61.7264 30.6944 61.8507 30.4937 61.8543 30.2487C61.8507 30.0427 61.7637 29.8741 61.5933 29.7427C61.4228 29.6077 61.16 29.5047 60.8049 29.4337L59.388 29.1514C58.589 28.9916 57.9942 28.7146 57.6036 28.3204C57.2165 27.9263 57.0229 27.4238 57.0229 26.813C57.0229 26.2874 57.165 25.8346 57.4491 25.4547C57.7367 25.0747 58.1398 24.7817 58.6582 24.5758C59.1803 24.3698 59.7911 24.2668 60.4906 24.2668C61.524 24.2668 62.3372 24.4852 62.9303 24.922C63.5269 25.3588 63.8749 25.9536 63.9743 26.7065ZM67.8588 27.8251V32.5552H65.5896V21.6461H67.7949V25.8169H67.8908C68.0754 25.3339 68.3737 24.9557 68.7856 24.6823C69.1976 24.4053 69.7143 24.2668 70.3357 24.2668C70.9039 24.2668 71.3993 24.3911 71.8219 24.6397C72.248 24.8847 72.5783 25.2381 72.8126 25.6997C73.0506 26.1578 73.1677 26.7065 73.1642 27.3457V32.5552H70.895V27.7505C70.8986 27.2462 70.7707 26.8538 70.5115 26.5733C70.2558 26.2927 69.8972 26.1525 69.4355 26.1525C69.1266 26.1525 68.8531 26.2182 68.6152 26.3496C68.3808 26.481 68.1962 26.6727 68.0612 26.9248C67.9298 27.1734 67.8623 27.4735 67.8588 27.8251ZM74.9926 32.5552V21.6461H77.2618V25.7476H77.331C77.4304 25.5275 77.5743 25.3038 77.7625 25.0765C77.9542 24.8457 78.2028 24.6539 78.5082 24.5012C78.8172 24.3449 79.2007 24.2668 79.6588 24.2668C80.2554 24.2668 80.8058 24.4231 81.3101 24.7356C81.8143 25.0445 82.2174 25.5115 82.5192 26.1365C82.8211 26.7579 82.972 27.5374 82.972 28.4749C82.972 29.3876 82.8246 30.1582 82.5299 30.7867C82.2387 31.4117 81.841 31.8858 81.3367 32.2089C80.836 32.5285 80.2749 32.6883 79.6535 32.6883C79.2131 32.6883 78.8385 32.6155 78.5295 32.4699C78.2241 32.3244 77.9738 32.1415 77.7785 31.9213C77.5831 31.6976 77.434 31.4721 77.331 31.2448H77.2298V32.5552H74.9926ZM77.2138 28.4643C77.2138 28.9508 77.2813 29.3751 77.4162 29.7373C77.5512 30.0996 77.7465 30.3819 78.0022 30.5843C78.2579 30.7832 78.5686 30.8826 78.9343 30.8826C79.3037 30.8826 79.6162 30.7814 79.8718 30.579C80.1275 30.373 80.3211 30.0889 80.4525 29.7267C80.5874 29.3609 80.6549 28.9401 80.6549 28.4643C80.6549 27.992 80.5892 27.5765 80.4578 27.2178C80.3264 26.8592 80.1329 26.5786 79.8772 26.3762C79.6215 26.1738 79.3072 26.0726 78.9343 26.0726C78.565 26.0726 78.2525 26.1702 77.9968 26.3655C77.7447 26.5609 77.5512 26.8378 77.4162 27.1965C77.2813 27.5552 77.2138 27.9778 77.2138 28.4643ZM88.1828 32.715C87.3554 32.715 86.6399 32.5392 86.0362 32.1876C85.436 31.8325 84.9726 31.3389 84.6459 30.7068C84.3192 30.0712 84.1559 29.3343 84.1559 28.4962C84.1559 27.6511 84.3192 26.9124 84.6459 26.2803C84.9726 25.6447 85.436 25.1511 86.0362 24.7995C86.6399 24.4444 87.3554 24.2668 88.1828 24.2668C89.0103 24.2668 89.724 24.4444 90.3242 24.7995C90.9279 25.1511 91.3931 25.6447 91.7198 26.2803C92.0465 26.9124 92.2098 27.6511 92.2098 28.4962C92.2098 29.3343 92.0465 30.0712 91.7198 30.7068C91.3931 31.3389 90.9279 31.8325 90.3242 32.1876C89.724 32.5392 89.0103 32.715 88.1828 32.715ZM88.1935 30.9572C88.5699 30.9572 88.8842 30.8506 89.1363 30.6376C89.3884 30.4209 89.5784 30.1262 89.7063 29.7533C89.8377 29.3805 89.9034 28.9561 89.9034 28.4802C89.9034 28.0044 89.8377 27.58 89.7063 27.2072C89.5784 26.8343 89.3884 26.5396 89.1363 26.3229C88.8842 26.1063 88.5699 25.998 88.1935 25.998C87.8135 25.998 87.4939 26.1063 87.2347 26.3229C86.979 26.5396 86.7855 26.8343 86.6541 27.2072C86.5262 27.58 86.4623 28.0044 86.4623 28.4802C86.4623 28.9561 86.5262 29.3805 86.6541 29.7533C86.7855 30.1262 86.979 30.4209 87.2347 30.6376C87.4939 30.8506 87.8135 30.9572 88.1935 30.9572ZM96.0184 32.7097C95.4964 32.7097 95.0312 32.6191 94.6228 32.438C94.2144 32.2533 93.8913 31.9817 93.6534 31.623C93.419 31.2608 93.3018 30.8098 93.3018 30.27C93.3018 29.8155 93.3853 29.4337 93.5522 29.1248C93.7191 28.8158 93.9463 28.5672 94.234 28.379C94.5216 28.1908 94.8483 28.0488 95.2141 27.9529C95.5834 27.857 95.9705 27.7896 96.3753 27.7505C96.8512 27.7008 97.2347 27.6546 97.5259 27.612C97.8171 27.5658 98.0284 27.4984 98.1598 27.4096C98.2911 27.3208 98.3568 27.1894 98.3568 27.0154V26.9834C98.3568 26.6461 98.2503 26.3851 98.0372 26.2004C97.8277 26.0158 97.5294 25.9234 97.1424 25.9234C96.734 25.9234 96.409 26.014 96.1676 26.1951C95.9261 26.3726 95.7663 26.5964 95.6882 26.8663L93.5894 26.6958C93.696 26.1986 93.9055 25.769 94.218 25.4067C94.5305 25.041 94.9335 24.7604 95.4272 24.5651C95.9243 24.3663 96.4996 24.2668 97.153 24.2668C97.6076 24.2668 98.0426 24.3201 98.4581 24.4266C98.8771 24.5332 99.2482 24.6983 99.5713 24.922C99.898 25.1457 100.155 25.4334 100.344 25.7849C100.532 26.1329 100.626 26.5502 100.626 27.0367V32.5552H98.474V31.4206H98.4101C98.2787 31.6763 98.1029 31.9018 97.8828 32.0971C97.6626 32.2888 97.398 32.4398 97.0891 32.5498C96.7801 32.6564 96.4233 32.7097 96.0184 32.7097ZM96.6683 31.1436C97.0021 31.1436 97.2968 31.0779 97.5525 30.9465C97.8082 30.8116 98.0088 30.6305 98.1544 30.4032C98.3 30.1759 98.3728 29.9185 98.3728 29.6308V28.7626C98.3018 28.8087 98.2041 28.8513 98.0799 28.8904C97.9591 28.9259 97.8224 28.9597 97.6697 28.9916C97.517 29.02 97.3643 29.0467 97.2116 29.0715C97.0589 29.0928 96.9204 29.1123 96.7961 29.1301C96.5298 29.1692 96.2972 29.2313 96.0983 29.3165C95.8995 29.4018 95.745 29.5172 95.6349 29.6628C95.5248 29.8048 95.4698 29.9824 95.4698 30.1954C95.4698 30.5044 95.5816 30.7405 95.8054 30.9039C96.0326 31.0637 96.3203 31.1436 96.6683 31.1436ZM102.386 32.5552V24.3734H104.586V25.8009H104.672C104.821 25.2931 105.071 24.9096 105.423 24.6503C105.774 24.3876 106.179 24.2562 106.637 24.2562C106.751 24.2562 106.873 24.2633 107.005 24.2775C107.136 24.2917 107.252 24.3112 107.351 24.3361V26.3496C107.244 26.3176 107.097 26.2892 106.909 26.2643C106.721 26.2395 106.548 26.2271 106.392 26.2271C106.058 26.2271 105.76 26.2998 105.497 26.4454C105.238 26.5875 105.032 26.7864 104.879 27.042C104.73 27.2977 104.656 27.5925 104.656 27.9263V32.5552H102.386ZM111.158 32.6883C110.537 32.6883 109.974 32.5285 109.47 32.2089C108.969 31.8858 108.571 31.4117 108.277 30.7867C107.985 30.1582 107.84 29.3876 107.84 28.4749C107.84 27.5374 107.991 26.7579 108.292 26.1365C108.594 25.5115 108.996 25.0445 109.496 24.7356C110.001 24.4231 110.553 24.2668 111.153 24.2668C111.611 24.2668 111.993 24.3449 112.298 24.5012C112.607 24.6539 112.856 24.8457 113.044 25.0765C113.236 25.3038 113.381 25.5275 113.481 25.7476H113.55V21.6461H115.814V32.5552H113.577V31.2448H113.481C113.374 31.4721 113.223 31.6976 113.028 31.9213C112.836 32.1415 112.586 32.3244 112.277 32.4699C111.971 32.6155 111.599 32.6883 111.158 32.6883ZM111.877 30.8826C112.243 30.8826 112.552 30.7832 112.804 30.5843C113.06 30.3819 113.255 30.0996 113.39 29.7373C113.529 29.3751 113.598 28.9508 113.598 28.4643C113.598 27.9778 113.53 27.5552 113.395 27.1965C113.261 26.8378 113.065 26.5609 112.81 26.3655C112.554 26.1702 112.243 26.0726 111.877 26.0726C111.504 26.0726 111.19 26.1738 110.935 26.3762C110.679 26.5786 110.485 26.8592 110.354 27.2178C110.223 27.5765 110.157 27.992 110.157 28.4643C110.157 28.9401 110.223 29.3609 110.354 29.7267C110.489 30.0889 110.682 30.373 110.935 30.579C111.19 30.7814 111.504 30.8826 111.877 30.8826Z" fill="#59A9FF"/>
<rect x="0.625" y="4.0498" width="26.2026" height="26.2026" rx="3.7433" fill="#59A9FF" fill-opacity="0.2"/>
<rect x="6.70825" y="9.66553" width="3.27541" height="3.27541" rx="1.16978" fill="#59A9FF"/>
<rect x="6.70776" y="15.2798" width="3.27541" height="3.27541" rx="1.16978" fill="#59A9FF"/>
<rect x="6.70776" y="20.8945" width="3.27541" height="3.27541" rx="1.16978" fill="#59A9FF"/>
<rect x="12.3225" y="9.66455" width="3.27541" height="3.27541" rx="1.16978" fill="#59A9FF"/>
<rect x="12.3225" y="15.2798" width="3.27541" height="3.27541" rx="1.16978" fill="#59A9FF"/>
<rect x="12.3225" y="20.8945" width="3.27541" height="3.27541" rx="1.16978" fill="#59A9FF"/>
<rect x="17.9375" y="9.66455" width="3.27541" height="3.27541" rx="1.16978" fill="#59A9FF"/>
<rect x="17.9375" y="15.2798" width="3.27541" height="3.27541" rx="1.16978" fill="#59A9FF"/>
<rect x="17.9375" y="20.8945" width="3.27541" height="3.27541" rx="1.16978" fill="#59A9FF"/>
</svg>
