<svg width="12" height="12" viewBox="0 0 12 12"  style="background-color: #fff;" fill="none" xmlns="http://www.w3.org/2000/svg">
<path d="M6.14894 8.89423C6.46669 8.89718 6.78182 8.8335 7.07592 8.70692C7.37003 8.58034 7.63723 8.39338 7.86192 8.15697C8.08661 7.92057 8.2643 7.63944 8.38461 7.32999C8.50492 7.02055 8.56544 6.68899 8.56264 6.35467C8.56544 6.02035 8.50492 5.6888 8.38461 5.37935C8.2643 5.06991 8.08661 4.78878 7.86192 4.55237C7.63723 4.31596 7.37003 4.12901 7.07592 4.00243C6.78182 3.87585 6.46669 3.81217 6.14894 3.81511C5.83119 3.81217 5.51607 3.87585 5.22196 4.00243C4.92785 4.12901 4.66065 4.31596 4.43596 4.55237C4.21127 4.78878 4.03358 5.06991 3.91327 5.37935C3.79297 5.6888 3.73244 6.02035 3.73524 6.35467C3.73244 6.68899 3.79297 7.02055 3.91327 7.32999C4.03358 7.63944 4.21127 7.92057 4.43596 8.15697C4.66065 8.39338 4.92785 8.58034 5.22196 8.70692C5.51607 8.8335 5.83119 8.89718 6.14894 8.89423ZM6.14894 11.8158C5.45745 11.8197 4.77266 11.6733 4.13745 11.3857C2.88971 10.8285 1.89634 9.78337 1.36675 8.47057C1.09699 7.79876 0.958008 7.07686 0.958008 6.34756C0.958008 5.61826 1.09699 4.89637 1.36675 4.22456C1.62914 3.57634 2.00834 2.9877 2.48342 2.49115C2.96014 1.99585 3.52147 1.59973 4.13791 1.32361C4.77642 1.03979 5.46254 0.893555 6.1557 0.893555C6.84885 0.893555 7.53497 1.03979 8.17348 1.32361C9.41704 1.87588 10.4067 2.91684 10.9321 4.22505C11.2018 4.89686 11.3408 5.61875 11.3408 6.34805C11.3408 7.07735 11.2018 7.79925 10.9321 8.47106C10.6692 9.1192 10.2924 9.7093 9.82146 10.2104C9.34954 10.711 8.7899 11.1106 8.17348 11.3872C7.5339 11.6753 6.84466 11.8209 6.14894 11.8158ZM6.14894 10.9964C6.73085 11.0076 7.30873 10.8928 7.8467 10.6591C8.38466 10.4255 8.87123 10.0779 9.27617 9.63811C9.69164 9.21139 10.0199 8.69987 10.2408 8.13492C10.4616 7.56997 10.5705 6.9635 10.5606 6.35271C10.5715 5.74105 10.4631 5.13353 10.2422 4.56764C10.0213 4.00174 9.69251 3.48947 9.27617 3.06242C8.87028 2.62437 8.3834 2.27846 7.84555 2.04603C7.3077 1.8136 6.73029 1.69957 6.14894 1.71099C5.56842 1.70062 4.99201 1.81515 4.45505 2.04753C3.9181 2.27992 3.43194 2.62528 3.02637 3.06242C2.60834 3.48847 2.27802 4.00041 2.05594 4.56643C1.83386 5.13245 1.72475 5.74046 1.7354 6.35271C1.72575 6.96409 1.83534 7.57106 2.05738 8.13613C2.27942 8.7012 2.60921 9.21239 3.02637 9.63811C3.43111 10.0768 3.91701 10.4235 4.45408 10.6568C4.99114 10.8902 5.56796 11.0053 6.14894 10.9949V10.9964Z" fill="#95A9B4"/>
</svg>
