<svg width="12" height="11" viewBox="0 0 12 11" style="background-color: #fff;" fill="none" xmlns="http://www.w3.org/2000/svg">
<path d="M6.14894 8.05195C6.46669 8.05489 6.78182 7.99122 7.07592 7.86463C7.37003 7.73805 7.63723 7.5511 7.86192 7.31469C8.08661 7.07828 8.2643 6.79715 8.38461 6.48771C8.50492 6.17827 8.56544 5.84671 8.56264 5.51239C8.56544 5.17807 8.50492 4.84651 8.38461 4.53707C8.2643 4.22763 8.08661 3.9465 7.86192 3.71009C7.63723 3.47368 7.37003 3.28673 7.07592 3.16015C6.78182 3.03356 6.46669 2.96989 6.14894 2.97283C5.83119 2.96989 5.51607 3.03356 5.22196 3.16015C4.92785 3.28673 4.66065 3.47368 4.43596 3.71009C4.21127 3.9465 4.03358 4.22763 3.91327 4.53707C3.79297 4.84651 3.73244 5.17807 3.73524 5.51239C3.73244 5.84671 3.79297 6.17827 3.91327 6.48771C4.03358 6.79715 4.21127 7.07828 4.43596 7.31469C4.66065 7.5511 4.92785 7.73805 5.22196 7.86463C5.51607 7.99122 5.83119 8.05489 6.14894 8.05195ZM6.14894 10.9735C5.45745 10.9774 4.77266 10.831 4.13745 10.5435C2.88971 9.98625 1.89634 8.94108 1.36675 7.62828C1.09699 6.95647 0.958008 6.23458 0.958008 5.50528C0.958008 4.77598 1.09699 4.05408 1.36675 3.38228C1.62914 2.73405 2.00834 2.14541 2.48342 1.64886C2.96014 1.15356 3.52147 0.75744 4.13791 0.481324C4.77642 0.197503 5.46254 0.0512695 6.1557 0.0512695C6.84885 0.0512695 7.53497 0.197503 8.17348 0.481324C9.41704 1.0336 10.4067 2.07455 10.9321 3.38277C11.2018 4.05457 11.3408 4.77647 11.3408 5.50577C11.3408 6.23507 11.2018 6.95696 10.9321 7.62877C10.6692 8.27691 10.2924 8.86701 9.82146 9.36807C9.34954 9.86867 8.7899 10.2683 8.17348 10.5449C7.5339 10.833 6.84466 10.9786 6.14894 10.9735ZM6.14894 10.1541C6.73085 10.1653 7.30873 10.0505 7.8467 9.81685C8.38466 9.58319 8.87123 9.23565 9.27617 8.79582C9.69164 8.36911 10.0199 7.85759 10.2408 7.29264C10.4616 6.72769 10.5705 6.12122 10.5606 5.51043C10.5715 4.89877 10.4631 4.29125 10.2422 3.72535C10.0213 3.15946 9.69251 2.64718 9.27617 2.22013C8.87028 1.78208 8.3834 1.43617 7.84555 1.20374C7.3077 0.971312 6.73029 0.857289 6.14894 0.868706C5.56842 0.858338 4.99201 0.972861 4.45505 1.20525C3.9181 1.43764 3.43194 1.78299 3.02637 2.22013C2.60834 2.64619 2.27802 3.15812 2.05594 3.72414C1.83386 4.29016 1.72475 4.89818 1.7354 5.51043C1.72575 6.12181 1.83534 6.72877 2.05738 7.29385C2.27942 7.85892 2.60921 8.3701 3.02637 8.79582C3.43111 9.23447 3.91701 9.58118 4.45408 9.81455C4.99114 10.0479 5.56796 10.163 6.14894 10.1526V10.1541Z" fill="#59A9FF"/>
</svg>
